<?xml version="1.0" encoding="utf-8"?>
<!-- Generator: Adobe Illustrator 26.0.0, SVG Export Plug-In . SVG Version: 6.00 Build 0)  -->
<svg version="1.1" id="Layer_1" xmlns="http://www.w3.org/2000/svg" xmlns:xlink="http://www.w3.org/1999/xlink" x="0px" y="0px"
	 viewBox="0 0 595.3 841.9" style="enable-background:new 0 0 595.3 841.9;" xml:space="preserve">
<style type="text/css">
	.st0{fill:#F1E517;}
</style>
<g>
	<path d="M483.3,524.4c-18.7-24.1-40.8-42.5-66.5-55.2c-25.6-12.7-58.9-25.9-99.9-39.8c-41-13.2-71.2-25.6-90.4-37.1
		c-19.3-11.4-28.9-27.4-28.9-47.9c0-18.7,5.7-33,17.2-42.9c11.4-9.9,26.5-14.9,45.2-14.9c21.7,0,39.5,5.9,53.4,17.7
		c9.8,8.3,16.5,18.8,19.9,31.5c2.7,10.1,12.2,16.9,22.6,16.9h147.4c-3-59.7-25.9-106.2-68.7-139.7c-42.8-33.5-99.2-50.2-169.1-50.2
		c-68.7,0-124.5,16.7-167.3,50.2c-42.8,33.5-64.2,79.7-64.2,138.8c0,39.8,9.3,72.1,28,96.8c18.7,24.7,41,43.4,66.9,56.1
		c25.9,12.7,59.4,25.3,100.4,38c28.3,8.5,50.2,16,65.5,22.6c15.4,6.7,28.4,15.1,38.9,25.3c10.6,10.3,15.8,23.2,15.8,38.9
		c0,18.7-6.7,33.3-19.9,43.9c-13.3,10.6-31.4,15.8-54.3,15.8c-22.3,0-40.4-6.1-54.3-18.5c-10.1-9-17.2-21.1-21.2-36
		c-2.8-10.4-12-17.8-22.9-17.8H32c1.2,41.6,12.8,77.2,34.8,106.7c22,29.6,51.4,51.9,88.2,66.9c36.8,15.1,78.4,22.6,124.8,22.6
		c47.6,0,88.9-8.7,123.9-26.2c2.8-1.4,5.5-2.9,8.2-4.4c-15-19.1-24-43.3-24-69.5c0-62.2,50.6-112.8,112.8-112.8
		c3.4,0,6.7,0.1,9.9,0.4C508.3,570.2,499.1,544.8,483.3,524.4z"/>
</g>
<g>
	<path class="st0" d="M588.1,712.8c0,48.2-39.2,87.4-87.4,87.4c-27,0-51-12.2-67.1-31.4c-12.7-15.2-20.4-34.7-20.4-56
		c0-48.2,39.2-87.4,87.4-87.4c3.5,0,7,0.2,10.5,0.7C554.5,631.2,588.1,668.1,588.1,712.8z"/>
</g>
</svg>
